# xmcd CD database file
#
# Track frame offsets:
#	182
#	18255
#	28467
#	37865
#	51987
#	74125
#	85680
#	107872
#	120357
#	132370
#	151747
#	171857
#	184445
#
# Disc length: 2718 seconds
#
# Revision: 0
# Processed by: cddbd v1.5.1PL2 Copyright (c) Steve Scherf et al.
# Submitted via: CDex 1.51
#
DISCID=b00a9c0d
DTITLE=AA.VV. - Jazz-Blues-Soul 1955-56/3
DYEAR=1900
DGENRE=Jazz
TTITLE0=Low Life (Bud Shank - Bob Brookmeyer)
TTITLE1=All By Myself (Antoine 'Fats' Domino)
TTITLE2=Funny Face (Earl King)
TTITLE3=In Other Words (Fly Me to the Moon) (Chris Connor)
TTITLE4=Woody 'n' You (Miles Davis)
TTITLE5=Strange Things (Happening) (Etta James)
TTITLE6=Topsy (Buddy Colette)
TTITLE7=My Life (Chuck Willis)
TTITLE8=Be-Bop-A-Lula (Gene Wincent)
TTITLE9=Little Girl (Ritchie Kamuca)
TTITLE10=Old Croix (Art Pepper)
TTITLE11=I Can't (Linda Hopkins)
TTITLE12=The Love Nest (Russ Freeman)
EXTD=
EXTT0=
EXTT1=
EXTT2=
EXTT3=
EXTT4=
EXTT5=
EXTT6=
EXTT7=
EXTT8=
EXTT9=
EXTT10=
EXTT11=
EXTT12=
PLAYORDER=
